# 3ds Max Wavefront OBJ Exporter v0.97b - (c)2007 guruware
# File Created: 11.04.2019 14:39:45

mtllib SM_Zuchini.mtl

#
# object SM_Zuchini
#

v  0.2240 0.5255 3.6267
v  0.4076 0.4583 3.8688
v  0.3678 0.3628 3.7561
v  0.2718 0.6401 3.7621
v  -0.0437 0.4612 4.4747
v  -0.1620 0.6606 3.8714
v  -0.1211 0.5631 4.4641
v  -0.0890 0.5691 3.8180
v  -0.2372 0.5869 3.7281
v  -0.3271 0.4699 3.8208
v  -0.3400 0.5864 3.8734
v  -0.1959 0.4945 3.6636
v  0.5668 0.5620 -3.7945
v  0.7411 0.7358 -2.6887
v  1.0439 -0.0000 -2.6890
v  0.7981 0.0001 -3.7948
v  0.4830 0.3439 3.8118
v  0.4974 0.2055 3.6556
v  0.5980 0.2562 3.7188
v  -0.5944 0.0405 3.8805
v  -0.4444 -0.0539 4.4796
v  -0.5416 0.0687 4.4421
v  -0.5488 -0.0975 3.8229
v  -0.3512 0.3628 3.7644
v  -0.5130 0.2182 3.6352
v  -0.4455 0.4023 3.8788
v  -0.6262 0.2657 3.7726
v  0.3762 0.2931 4.4697
v  0.3433 0.4566 4.4185
v  0.3669 0.5756 3.9861
v  0.5160 0.2900 4.4350
v  0.6048 0.3322 3.8884
v  -0.2949 0.4907 4.4662
v  -0.2772 0.3639 4.4774
v  -0.4317 0.3437 4.4403
v  -0.5823 0.5805 2.9910
v  -0.8212 0.0000 2.9940
v  -0.5294 0.5340 3.4454
v  -0.7362 0.0314 3.4478
v  0.6438 -0.2638 3.7578
v  0.5167 0.0010 3.7544
v  0.6120 -0.0385 3.8665
v  0.5293 -0.2163 3.6232
v  0.2861 0.2806 -4.5214
v  0.4015 0.0001 -4.5216
v  -0.6338 -0.6482 1.1149
v  -0.0018 -1.0528 -0.9482
v  0.0100 -0.9166 1.0993
v  -0.7414 -0.7444 -0.9482
v  0.7378 0.7444 -0.9482
v  1.0442 -0.0000 -0.9482
v  0.0778 -0.4567 4.4734
v  0.3048 -0.3620 4.4707
v  0.0276 -0.3289 4.5392
v  0.2597 -0.2322 4.5365
v  0.4707 0.0634 4.4686
v  0.6732 -0.1418 3.9743
v  0.5676 -0.0644 4.4259
v  -0.2045 0.2351 4.5419
v  0.0306 0.0016 4.4954
v  0.0276 0.3318 4.5392
v  -0.3006 0.0015 4.5430
v  -0.1638 -0.6427 4.0235
v  -0.0305 -0.6061 3.8740
v  -0.0949 -0.5508 4.3947
v  0.0100 0.9166 1.0993
v  0.5712 0.5805 2.9765
v  0.6537 0.6481 1.0837
v  -0.0056 0.8210 2.9837
v  0.4694 0.5340 3.4339
v  0.0083 0.5127 3.7602
v  -0.0300 0.7422 3.4396
v  -0.5001 0.0010 3.7661
v  0.0083 -0.5107 3.7602
v  -0.2077 -0.5235 3.6317
v  -0.0300 -0.6794 3.4396
v  -0.3512 -0.3608 3.7644
v  -0.5294 -0.4712 3.4454
v  0.6762 0.0314 3.4315
v  0.3678 -0.3608 3.7561
v  0.4694 -0.4712 3.4339
v  -0.4831 -0.2033 3.6669
v  0.2102 -0.4924 3.6589
v  0.5804 -0.3670 3.9746
v  0.4631 -0.4004 3.8682
v  -0.3152 -0.5788 4.0237
v  -0.3900 -0.4562 3.8782
v  -0.2542 -0.6381 3.7684
v  0.1609 0.6617 3.9891
v  0.0481 0.6082 3.8729
v  -0.9004 -0.0000 1.1214
v  -0.5823 -0.5805 2.9910
v  -0.5604 0.3737 3.9828
v  -0.6561 0.1413 3.9843
v  0.8101 0.0000 2.9735
v  0.4615 -0.3371 4.4266
v  0.0100 -1.0406 -2.6878
v  -0.5499 -0.5619 -3.7932
v  0.0085 -0.7946 -3.7939
v  -0.7211 -0.7358 -2.6870
v  0.0100 1.0406 -2.6878
v  -0.0018 1.0528 -0.9482
v  0.0941 0.5562 4.4219
v  -0.6338 0.6481 1.1149
v  -1.0478 -0.0000 -0.9482
v  -0.7414 0.7444 -0.9482
v  0.6537 -0.6482 1.0837
v  0.7378 -0.7444 -0.9482
v  0.9204 -0.0000 1.0773
v  0.7411 -0.7358 -2.6887
v  0.5668 -0.5619 -3.7945
v  0.5795 0.1096 3.8107
v  0.6581 0.2029 3.8878
v  0.5677 0.1645 4.4345
v  0.1237 -0.5669 3.8161
v  0.2683 -0.5860 3.7228
v  0.3081 -0.4983 4.4435
v  0.3509 -0.5904 3.8846
v  0.3552 -0.4704 3.8134
v  0.2121 -0.6483 3.8862
v  -0.6219 -0.2006 3.9095
v  -0.5644 -0.2507 3.7313
v  -0.5712 -0.3240 3.9089
v  -0.4465 -0.3462 3.8217
v  -0.3440 -0.2977 4.4784
v  -0.2844 -0.4798 4.3956
v  -0.2045 -0.2322 4.5419
v  0.0085 0.7948 -3.7939
v  -0.4895 -0.2853 4.4326
v  -0.5499 0.5620 -3.7932
v  -0.7211 0.7358 -2.6870
v  0.2597 0.2351 4.5365
v  0.1731 -0.5546 4.4452
v  0.3558 0.0015 4.5354
v  -0.5386 -0.1658 4.4332
v  -0.0056 -0.8209 2.9837
v  -0.7811 0.0001 -3.7930
v  -1.0239 -0.0000 -2.6866
v  0.5712 -0.5805 2.9765
v  0.0074 -0.3965 -4.5211
v  -0.2712 -0.2804 -4.5208
v  0.0074 0.0002 -4.6461
v  0.2861 -0.2804 -4.5214
v  -0.3867 0.0001 -4.5207
v  0.0074 0.3967 -4.5211
v  -0.2712 0.2806 -4.5208
# 146 vertices

vn 0.3878 0.9110 0.1402
vn 0.8684 0.4500 -0.2082
vn 0.7391 0.6323 -0.2323
vn 0.3417 0.8315 -0.4380
vn 0.0824 0.5807 0.8099
vn 0.2281 0.9644 -0.1339
vn 0.2268 0.7582 0.6113
vn 0.2956 0.8710 -0.3924
vn -0.2826 0.6434 -0.7114
vn -0.8337 0.3880 -0.3928
vn -0.8465 0.5173 -0.1258
vn -0.3770 0.9194 0.1119
vn 0.6659 0.6634 -0.3412
vn 0.7050 0.7010 -0.1076
vn 0.9943 -0.0000 -0.1065
vn 0.9401 0.0000 -0.3408
vn 0.4214 0.8275 -0.3709
vn 0.9297 0.3670 -0.0302
vn 0.6618 0.2973 -0.6882
vn -0.9068 -0.3641 -0.2127
vn -0.6089 -0.0234 0.7929
vn -0.7934 -0.1104 0.5986
vn -0.9284 0.1875 -0.3209
vn -0.6388 0.7507 -0.1685
vn -0.9034 0.3735 0.2105
vn -0.4068 0.8881 -0.2138
vn -0.8287 0.3421 -0.4430
vn 0.4335 0.4651 0.7719
vn 0.6225 0.5421 0.5645
vn 0.7521 0.6520 0.0959
vn 0.4840 0.6644 0.5695
vn 0.6008 0.7980 -0.0459
vn -0.6891 0.3771 0.6188
vn -0.4352 0.3537 0.8280
vn -0.4946 0.6328 0.5958
vn -0.7061 0.7013 0.0979
vn -0.9937 -0.0075 0.1122
vn -0.6524 0.6572 0.3773
vn -0.9241 0.0147 0.3819
vn 0.8243 -0.3434 -0.4501
vn 0.9663 0.0805 -0.2445
vn 0.9202 0.3192 -0.2264
vn 0.9238 -0.3827 -0.0080
vn 0.4845 0.4828 -0.7295
vn 0.6843 0.0000 -0.7292
vn -0.7063 -0.7056 0.0575
vn -0.0014 -0.9996 0.0294
vn 0.0029 -0.9983 0.0586
vn -0.7092 -0.7045 0.0287
vn 0.7076 0.7060 0.0300
vn 0.9995 0.0000 0.0301
vn -0.0553 -0.6328 0.7724
vn 0.4591 -0.4099 0.7882
vn -0.0261 -0.2514 0.9675
vn 0.2294 -0.1531 0.9612
vn 0.6359 -0.0028 0.7718
vn 0.9928 0.0979 0.0695
vn 0.8095 0.1065 0.5774
vn -0.1635 0.1386 0.9768
vn 0.0100 -0.0000 0.9999
vn 0.0578 0.2561 0.9649
vn -0.2108 0.0314 0.9770
vn 0.0006 -0.9892 0.1467
vn 0.2807 -0.9431 -0.1781
vn 0.0164 -0.8484 0.5292
vn 0.0029 0.9983 0.0586
vn 0.7083 0.6922 0.1383
vn 0.7089 0.7028 0.0593
vn 0.0059 0.9940 0.1095
vn 0.6514 0.6736 0.3493
vn -0.0887 0.9798 -0.1794
vn -0.0189 0.9304 0.3661
vn -0.9813 -0.1075 -0.1596
vn 0.0995 -0.9685 -0.2284
vn -0.3745 -0.9235 0.0824
vn -0.0080 -0.9348 0.3551
vn -0.7450 -0.6368 -0.1986
vn -0.6769 -0.6330 0.3756
vn 0.9419 0.0278 0.3348
vn 0.6341 -0.7264 -0.2651
vn 0.6622 -0.6701 0.3355
vn -0.9280 -0.3616 0.0895
vn 0.3637 -0.9299 -0.0552
vn 0.6378 -0.7663 0.0774
vn 0.4328 -0.8757 -0.2139
vn -0.6978 -0.6993 0.1550
vn -0.8787 -0.4509 -0.1570
vn -0.3530 -0.8423 -0.4074
vn -0.0653 0.9926 0.1024
vn -0.3293 0.9228 -0.1997
vn -0.9984 -0.0000 0.0568
vn -0.6949 -0.7048 0.1431
vn -0.6276 0.7750 0.0746
vn -0.9913 -0.1083 0.0745
vn 0.9861 -0.0066 0.1661
vn 0.5232 -0.6227 0.5818
vn 0.0009 -0.9939 -0.1099
vn -0.6668 -0.6634 -0.3395
vn -0.0004 -0.9400 -0.3412
vn -0.7038 -0.7016 -0.1115
vn 0.0009 0.9940 -0.1098
vn -0.0014 0.9996 0.0294
vn -0.0623 0.8173 0.5729
vn -0.7063 0.7056 0.0575
vn -0.9996 0.0000 0.0284
vn -0.7092 0.7045 0.0287
vn 0.7089 -0.7028 0.0594
vn 0.7076 -0.7060 0.0300
vn 0.9982 -0.0000 0.0596
vn 0.7050 -0.7010 -0.1076
vn 0.6659 -0.6634 -0.3413
vn 0.8967 -0.2656 -0.3541
vn 0.9882 -0.1435 -0.0534
vn 0.8137 -0.1363 0.5651
vn -0.2643 -0.9032 -0.3383
vn 0.3034 -0.6536 -0.6934
vn 0.6787 -0.4501 0.5804
vn 0.8142 -0.5769 -0.0646
vn 0.8283 -0.4022 -0.3901
vn -0.1612 -0.9847 -0.0661
vn -0.9935 0.1077 -0.0365
vn -0.6977 -0.3177 -0.6421
vn -0.6290 -0.7768 -0.0322
vn -0.4942 -0.7910 -0.3606
vn -0.4154 -0.4869 0.7684
vn -0.5683 -0.6265 0.5335
vn -0.1204 -0.1861 0.9751
vn -0.0004 0.9400 -0.3411
vn -0.5262 -0.6563 0.5408
vn -0.6668 0.6635 -0.3394
vn -0.7038 0.7016 -0.1114
vn 0.1695 0.2023 0.9645
vn -0.1508 -0.7981 0.5834
vn 0.2908 -0.0456 0.9557
vn -0.8363 0.0937 0.5401
vn 0.0058 -0.9854 0.1703
vn -0.9411 0.0000 -0.3382
vn -0.9937 -0.0000 -0.1119
vn 0.6969 -0.6945 0.1789
vn -0.0009 -0.6841 -0.7294
vn -0.4863 -0.4828 -0.7283
vn -0.0010 0.0001 -1.0000
vn 0.4845 -0.4828 -0.7295
vn -0.6861 0.0000 -0.7275
vn -0.0009 0.6841 -0.7294
vn -0.4863 0.4828 -0.7283
# 146 vertex normals

vt 0.1143 0.6338 0.0000
vt 0.0891 0.6018 0.0000
vt 0.1024 0.5872 0.0000
vt 0.0984 0.6382 0.0000
vt 0.0426 0.6958 0.0000
vt 0.0906 0.7200 0.0000
vt 0.0539 0.7178 0.0000
vt 0.0988 0.7031 0.0000
vt 0.1012 0.7354 0.0000
vt 0.0957 0.7676 0.0000
vt 0.0892 0.7461 0.0000
vt 0.1132 0.7373 0.0000
vt 0.8418 0.1904 0.0000
vt 0.7520 0.1558 0.0000
vt 0.7637 0.0298 0.0000
vt 0.8540 0.0908 0.0000
vt 0.0906 0.5759 0.0000
vt 0.1004 0.5388 0.0000
vt 0.0894 0.5466 0.0000
vt 0.0764 0.8635 0.0000
vt 0.0267 0.8330 0.0000
vt 0.0400 0.8201 0.0000
vt 0.0767 0.8932 0.0000
vt 0.1041 0.7874 0.0000
vt 0.1047 0.8407 0.0000
vt 0.0886 0.7896 0.0000
vt 0.0893 0.8306 0.0000
vt 0.0374 0.6143 0.0000
vt 0.0509 0.6323 0.0000
vt 0.0816 0.6267 0.0000
vt 0.0456 0.5859 0.0000
vt 0.0797 0.5635 0.0000
vt 0.0510 0.7419 0.0000
vt 0.0403 0.7566 0.0000
vt 0.0479 0.7826 0.0000
vt 0.3062 0.4009 0.0000
vt 0.3076 0.5002 0.0000
vt 0.2686 0.4043 0.0000
vt 0.2695 0.4966 0.0000
vt 0.0501 0.1260 0.0000
vt 0.0490 0.0728 0.0000
vt 0.0632 0.0894 0.0000
vt 0.0344 0.1177 0.0000
vt 0.9116 0.1978 0.0000
vt 0.9180 0.1484 0.0000
vt 0.4568 0.6123 0.0000
vt 0.6167 0.7371 0.0000
vt 0.4553 0.7258 0.0000
vt 0.6162 0.6174 0.0000
vt 0.6177 0.1382 0.0000
vt 0.6177 0.0054 0.0000
vt 0.1421 0.5813 0.0000
vt 0.1420 0.5398 0.0000
vt 0.1544 0.5796 0.0000
vt 0.1545 0.5400 0.0000
vt 0.1135 0.1250 0.0000
vt 0.0682 0.1187 0.0000
vt 0.1000 0.1377 0.0000
vt 0.2026 0.5791 0.0000
vt 0.1785 0.5591 0.0000
vt 0.2025 0.5393 0.0000
vt 0.1886 0.6077 0.0000
vt 0.0975 0.2573 0.0000
vt 0.0591 0.2974 0.0000
vt 0.0469 0.2754 0.0000
vt 0.0865 0.2866 0.0000
vt 0.4556 0.2734 0.0000
vt 0.2983 0.1997 0.0000
vt 0.4524 0.1582 0.0000
vt 0.3035 0.3008 0.0000
vt 0.2437 0.2627 0.0000
vt 0.2279 0.2324 0.0000
vt 0.2598 0.2197 0.0000
vt 0.2318 0.2993 0.0000
vt 0.2654 0.3120 0.0000
vt 0.2493 0.4536 0.0000
vt 0.2352 0.4214 0.0000
vt 0.2360 0.4878 0.0000
vt 0.2352 0.6758 0.0000
vt 0.2500 0.6433 0.0000
vt 0.2666 0.6848 0.0000
vt 0.2372 0.6072 0.0000
vt 0.2693 0.5906 0.0000
vt 0.2195 0.8413 0.0000
vt 0.2373 0.8143 0.0000
vt 0.2474 0.8719 0.0000
vt 0.2286 0.7731 0.0000
vt 0.2598 0.7794 0.0000
vt 0.2332 0.1758 0.0000
vt 0.2195 0.1470 0.0000
vt 0.2494 0.1274 0.0000
vt 0.2271 0.2134 0.0000
vt 0.2434 0.3579 0.0000
vt 0.2324 0.3262 0.0000
vt 0.2346 0.3926 0.0000
vt 0.2366 0.5840 0.0000
vt 0.2467 0.5503 0.0000
vt 0.2297 0.7611 0.0000
vt 0.2423 0.7297 0.0000
vt 0.2347 0.6926 0.0000
vt 0.0626 0.1519 0.0000
vt 0.0512 0.1675 0.0000
vt 0.0602 0.3208 0.0000
vt 0.0511 0.3477 0.0000
vt 0.0422 0.3130 0.0000
vt 0.0834 0.6580 0.0000
vt 0.0938 0.6780 0.0000
vt 0.4573 0.4995 0.0000
vt 0.3079 0.5989 0.0000
vt 0.0776 0.8048 0.0000
vt 0.0720 0.8375 0.0000
vt 0.2881 0.0962 0.0000
vt 0.0920 0.1743 0.0000
vt 0.0995 0.2002 0.0000
vt 0.7441 0.7275 0.0000
vt 0.8301 0.6035 0.0000
vt 0.8350 0.7073 0.0000
vt 0.7407 0.6135 0.0000
vt 0.7446 0.2734 0.0000
vt 0.6172 0.2627 0.0000
vt 0.0522 0.6704 0.0000
vt 0.4568 0.3867 0.0000
vt 0.6162 0.5000 0.0000
vt 0.6167 0.3823 0.0000
vt 0.6172 0.9950 0.0000
vt 0.4519 0.8407 0.0000
vt 0.6172 0.8617 0.0000
vt 0.4451 0.9575 0.0000
vt 0.7515 0.8451 0.0000
vt 0.8418 0.8109 0.0000
vt 0.7632 0.9709 0.0000
vt 0.8535 0.9106 0.0000
vt 0.0819 0.5203 0.0000
vt 0.0883 0.4976 0.0000
vt 0.0267 0.5552 0.0000
vt 0.0765 0.5442 0.0000
vt 0.0411 0.5691 0.0000
vt 0.0279 0.2168 0.0000
vt 0.0424 0.2476 0.0000
vt 0.0324 0.2676 0.0000
vt 0.0401 0.2168 0.0000
vt 0.0872 0.2183 0.0000
vt 0.0519 0.2080 0.0000
vt 0.0447 0.1880 0.0000
vt 0.0512 0.2290 0.0000
vt 0.0639 0.4048 0.0000
vt 0.0496 0.4038 0.0000
vt 0.0605 0.3857 0.0000
vt 0.0587 0.4336 0.0000
vt 0.0485 0.3716 0.0000
vt 0.1024 0.3364 0.0000
vt 0.0876 0.3169 0.0000
vt 0.1893 0.6350 0.0000
vt 0.1672 0.6348 0.0000
vt 0.1685 0.6079 0.0000
vt 0.8354 0.2939 0.0000
vt 0.0948 0.3643 0.0000
vt 0.8301 0.3975 0.0000
vt 0.7412 0.3872 0.0000
vt 0.1087 0.6855 0.0000
vt 0.1898 0.4883 0.0000
vt 0.1884 0.5117 0.0000
vt 0.2158 0.5403 0.0000
vt 0.0361 0.1699 0.0000
vt 0.0735 0.4966 0.0000
vt 0.0390 0.4116 0.0000
vt 0.0380 0.3628 0.0000
vt 0.0883 0.8823 0.0000
vt 0.0878 0.2378 0.0000
vt 0.0267 0.3164 0.0000
vt 0.1687 0.4883 0.0000
vt 0.1686 0.5122 0.0000
vt 0.0993 0.3809 0.0000
vt 0.1135 0.3921 0.0000
vt 0.3062 0.6965 0.0000
vt 0.4460 0.0410 0.0000
vt 0.8276 0.5005 0.0000
vt 0.7397 0.5002 0.0000
vt 0.2874 0.8979 0.0000
vt 0.3003 0.7953 0.0000
vt 0.2157 0.5833 0.0000
vt 0.0511 0.4570 0.0000
vt 0.9131 0.4463 0.0000
vt 0.9302 0.4116 0.0000
vt 0.9429 0.4712 0.0000
vt 0.9131 0.4961 0.0000
vt 0.9551 0.4116 0.0000
vt 0.9307 0.5308 0.0000
vt 0.9556 0.5308 0.0000
vt 0.9731 0.4961 0.0000
vt 0.9731 0.4463 0.0000
vt 0.2367 0.5164 0.0000
vt 0.9009 0.3862 0.0000
vt 0.9038 0.3345 0.0000
vt 0.9097 0.7676 0.0000
vt 0.9067 0.7158 0.0000
vt 0.9116 0.8036 0.0000
vt 0.9175 0.8534 0.0000
vt 0.9009 0.6150 0.0000
vt 0.9038 0.6670 0.0000
vt 0.9102 0.2339 0.0000
vt 0.9067 0.2856 0.0000
vt 0.8970 0.4819 0.0000
vt 0.8984 0.4307 0.0000
vt 0.8970 0.5195 0.0000
vt 0.8979 0.5708 0.0000
# 206 texture coords

o SM_Zuchini
g SM_Zuchini
usemtl M_Zuchini
s 1
f 1/1/1 2/2/2 3/3/3 
f 2/2/2 1/1/1 4/4/4 
f 5/5/5 6/6/6 7/7/7 
f 6/6/6 5/5/5 8/8/8 
s off
f 9/9/9 10/10/10 11/11/11 
f 10/10/10 9/9/9 12/12/12 
s 1
f 13/13/13 14/14/14 15/15/15 
f 13/13/13 15/15/15 16/16/16 
s off
f 17/17/17 18/18/18 3/3/3 
f 18/18/18 17/17/17 19/19/19 
s 1
f 20/20/20 21/21/21 22/22/22 
s off
f 21/21/21 20/20/20 23/23/23 
s 1
f 24/24/24 25/25/25 26/26/26 
f 26/26/26 25/25/25 27/27/27 
s off
f 28/28/28 2/2/2 29/29/29 
f 29/29/29 2/2/2 30/30/30 
s 1
f 17/17/17 31/31/31 32/32/32 
f 31/31/31 17/17/17 28/28/28 
s 2
f 5/5/5 33/33/33 34/34/34 
f 33/33/33 5/5/5 7/7/7 
s off
f 22/22/22 34/34/34 35/35/35 
f 21/21/21 34/34/34 22/22/22 
s 1
f 36/36/36 37/37/37 38/38/38 
f 38/38/38 37/37/37 39/39/39 
f 10/10/10 34/34/34 11/11/11 
f 33/33/33 11/11/11 34/34/34 
f 40/40/40 41/41/41 42/42/42 
f 41/41/41 40/40/40 43/43/43 
s 2
f 44/44/44 13/13/13 16/16/16 
f 44/44/44 16/16/16 45/45/45 
s 1
f 46/46/46 47/47/47 48/48/48 
f 47/47/47 46/46/46 49/49/49 
s 2
f 14/14/14 50/50/50 51/51/51 
f 14/14/14 51/51/51 15/15/15 
s off
f 52/52/52 53/53/53 54/54/54 
f 54/54/54 53/53/53 55/55/55 
f 42/42/42 56/56/56 57/57/57 
f 57/57/57 56/56/56 58/58/58 
f 59/59/59 60/60/60 61/61/61 
f 60/60/60 59/59/59 62/62/62 
f 52/63/52 63/64/63 64/65/64 
f 63/64/63 52/63/52 65/66/65 
s 1
f 66/67/66 67/68/67 68/69/68 
f 67/68/67 66/67/66 69/70/69 
s off
f 1/71/1 3/72/3 70/73/70 
f 71/74/71 1/71/1 72/75/72 
f 1/71/1 70/73/70 72/75/72 
s 2
f 25/76/25 24/77/24 38/38/38 
s off
f 73/78/73 25/76/25 39/39/39 
s 2
f 39/39/39 25/76/25 38/38/38 
s off
f 74/79/74 75/80/75 76/81/76 
f 75/80/75 77/82/77 78/83/78 
f 76/81/76 75/80/75 78/83/78 
f 41/84/41 43/85/43 79/86/79 
f 43/85/43 80/87/80 81/88/81 
f 43/85/43 81/88/81 79/86/79 
f 18/89/18 41/90/41 79/91/79 
f 70/73/70 18/89/18 79/91/79 
f 3/92/3 18/89/18 70/73/70 
f 12/93/12 71/94/71 72/75/72 
f 38/38/38 12/93/12 72/75/72 
f 24/95/24 12/93/12 38/38/38 
f 77/96/77 82/97/82 78/83/78 
f 80/98/80 83/99/83 81/88/81 
f 83/99/83 74/100/74 76/81/76 
f 84/101/84 85/102/85 40/40/40 
f 40/40/40 57/57/57 84/101/84 
f 42/42/42 57/57/57 40/40/40 
f 86/103/86 87/104/87 88/105/88 
f 63/64/63 88/105/88 64/65/64 
f 63/64/63 86/103/86 88/105/88 
f 30/30/30 4/4/4 89/106/89 
f 30/30/30 2/2/2 4/4/4 
f 90/107/90 89/106/89 4/4/4 
s 1
f 91/108/91 92/109/92 37/37/37 
f 92/109/92 91/108/91 46/46/46 
s off
f 93/110/93 26/26/26 27/27/27 
f 27/27/27 94/111/94 93/110/93 
f 20/20/20 94/111/94 27/27/27 
s 1
f 70/73/70 95/112/95 67/68/67 
f 95/112/95 70/73/70 79/91/79 
s off
f 57/57/57 96/113/96 84/101/84 
f 96/113/96 57/57/57 58/58/58 
f 53/114/53 85/102/85 96/113/96 
f 85/102/85 84/101/84 96/113/96 
s 1
f 97/115/97 98/116/98 99/117/99 
f 98/116/98 97/115/97 100/118/100 
f 50/50/50 14/14/14 101/119/101 
f 101/119/101 102/120/102 50/50/50 
s off
f 5/5/5 90/107/90 8/8/8 
f 90/107/90 5/5/5 103/121/103 
s 1
f 104/122/104 105/123/105 91/108/91 
f 105/123/105 104/122/104 106/124/106 
f 51/125/51 107/126/107 108/127/108 
f 107/126/107 51/125/51 109/128/109 
s off
f 10/10/10 12/12/12 24/24/24 
s 2
f 110/129/110 111/130/111 15/131/15 
f 16/132/16 15/131/15 111/130/111 
s off
f 18/18/18 112/133/112 41/134/41 
f 18/18/18 19/19/19 112/133/112 
s 1
f 56/135/56 113/136/113 114/137/114 
f 113/136/113 56/135/56 112/133/112 
s off
f 83/138/83 115/139/115 74/140/74 
f 83/138/83 116/141/116 115/139/115 
s 1
f 117/142/117 118/143/118 53/114/53 
f 119/144/119 53/114/53 118/143/118 
s off
f 120/145/120 116/141/116 118/143/118 
f 120/145/120 115/139/115 116/141/116 
f 119/144/119 118/143/118 116/141/116 
f 113/136/113 19/19/19 32/32/32 
f 113/136/113 112/133/112 19/19/19 
f 17/17/17 32/32/32 19/19/19 
f 6/6/6 8/8/8 9/9/9 
f 9/9/9 11/11/11 6/6/6 
f 121/146/121 122/147/122 123/148/123 
f 121/146/121 23/149/23 122/147/122 
f 124/150/124 123/148/123 122/147/122 
f 125/151/125 65/66/65 52/63/52 
f 65/66/65 125/151/125 126/152/126 
s 1
f 21/153/21 125/154/125 127/155/127 
f 21/153/21 127/155/127 62/62/62 
s off
f 26/26/26 35/35/35 34/34/34 
f 35/35/35 26/26/26 93/110/93 
s 2
f 101/119/101 13/13/13 128/156/128 
f 13/13/13 101/119/101 14/14/14 
s 1
f 103/121/103 5/5/5 28/28/28 
f 103/121/103 28/28/28 29/29/29 
f 129/157/129 124/150/124 125/151/125 
f 124/150/124 129/157/129 123/148/123 
f 130/158/130 101/119/101 128/156/128 
f 101/119/101 130/158/130 131/159/131 
s 2
f 90/107/90 4/4/4 71/160/71 
f 71/160/71 4/4/4 1/1/1 
s off
f 28/161/28 61/61/61 132/162/132 
f 61/61/61 28/161/28 5/163/5 
f 64/65/64 115/139/115 52/63/52 
f 74/140/74 115/139/115 64/65/64 
f 119/144/119 85/102/85 53/114/53 
f 119/144/119 80/164/80 85/102/85 
f 42/165/42 112/133/112 56/135/56 
f 41/134/41 112/133/112 42/165/42 
f 17/17/17 2/2/2 28/28/28 
f 3/3/3 2/2/2 17/17/17 
f 83/138/83 119/144/119 116/141/116 
f 119/144/119 83/138/83 80/164/80 
f 71/160/71 8/8/8 90/107/90 
f 10/10/10 26/26/26 34/34/34 
f 10/10/10 24/24/24 26/26/26 
f 82/166/82 124/150/124 122/147/122 
f 124/150/124 82/166/82 77/167/77 
f 73/168/73 23/23/23 20/20/20 
s 2
f 133/169/133 120/145/120 117/142/117 
f 117/142/117 120/145/120 118/143/118 
s off
f 124/150/124 77/167/77 87/104/87 
s 2
f 36/36/36 91/108/91 37/37/37 
f 91/108/91 36/36/36 104/122/104 
s 1
f 88/105/88 87/104/87 75/170/75 
f 87/104/87 77/167/77 75/170/75 
f 132/162/132 56/171/56 28/161/28 
f 56/171/56 132/162/132 134/172/134 
s off
f 69/70/69 38/38/38 72/75/72 
f 38/38/38 69/70/69 36/36/36 
f 53/53/53 56/171/56 134/172/134 
f 53/53/53 134/172/134 55/55/55 
s 2
f 135/173/135 129/157/129 125/151/125 
f 135/173/135 125/151/125 21/174/21 
s off
f 87/104/87 86/103/86 126/152/126 
f 78/83/78 82/97/82 39/39/39 
s 2
f 92/109/92 46/46/46 136/175/136 
f 136/175/136 46/46/46 48/48/48 
f 49/49/49 46/46/46 105/123/105 
f 91/108/91 105/123/105 46/46/46 
s 4
f 109/176/109 51/51/51 68/69/68 
f 50/50/50 68/69/68 51/51/51 
s 1
f 94/111/94 20/20/20 22/22/22 
s 2
f 137/177/137 138/178/138 130/158/130 
f 131/159/131 130/158/130 138/178/138 
f 114/137/114 113/136/113 31/31/31 
f 32/32/32 31/31/31 113/136/113 
s off
f 125/151/125 124/150/124 87/104/87 
f 125/151/125 87/104/87 126/152/126 
s 2
f 49/49/49 100/118/100 47/47/47 
f 47/47/47 100/118/100 97/115/97 
s off
f 102/120/102 68/69/68 50/50/50 
f 68/69/68 102/120/102 66/67/66 
f 61/61/61 60/60/60 132/162/132 
f 132/162/132 60/60/60 134/172/134 
s 2
f 43/43/43 40/40/40 85/102/85 
f 43/43/43 85/102/85 80/164/80 
s off
f 89/106/89 90/107/90 103/121/103 
s 4
f 11/11/11 33/33/33 6/6/6 
f 6/6/6 33/33/33 7/7/7 
f 104/122/104 69/70/69 66/67/66 
f 69/70/69 104/122/104 36/36/36 
s 2
f 79/86/79 81/88/81 95/179/95 
f 95/179/95 81/88/81 139/180/139 
f 25/25/25 73/168/73 27/27/27 
f 73/168/73 20/20/20 27/27/27 
s 1
f 59/59/59 5/163/5 34/181/34 
f 5/163/5 59/59/59 61/61/61 
s 2
f 37/37/37 78/83/78 39/39/39 
f 78/83/78 37/37/37 92/109/92 
s 1
f 76/81/76 78/83/78 136/175/136 
f 78/83/78 92/109/92 136/175/136 
s off
f 71/160/71 12/12/12 8/8/8 
f 8/8/8 12/12/12 9/9/9 
f 48/48/48 47/47/47 107/126/107 
f 107/126/107 47/47/47 108/127/108 
s 2
f 102/120/102 101/119/101 131/159/131 
f 131/159/131 106/124/106 102/120/102 
s 1
f 121/146/121 21/174/21 23/149/23 
f 21/174/21 121/146/121 135/173/135 
s off
f 23/149/23 82/166/82 122/147/122 
f 82/166/82 23/149/23 73/182/73 
f 126/152/126 63/64/63 65/66/65 
f 63/64/63 126/152/126 86/103/86 
s 4
f 28/28/28 56/135/56 114/137/114 
f 28/28/28 114/137/114 31/31/31 
s 1
f 139/180/139 109/128/109 95/179/95 
f 109/128/109 139/180/139 107/126/107 
s off
f 60/60/60 62/62/62 127/155/127 
f 60/60/60 127/155/127 54/54/54 
f 67/68/67 69/70/69 70/73/70 
f 69/70/69 72/75/72 70/73/70 
f 34/181/34 62/62/62 59/59/59 
f 62/62/62 34/181/34 21/153/21 
s 4
f 138/178/138 137/177/137 98/116/98 
f 138/178/138 98/116/98 100/118/100 
s off
f 89/106/89 29/29/29 30/30/30 
f 29/29/29 89/106/89 103/121/103 
s 4
f 121/146/121 129/157/129 135/173/135 
f 129/157/129 121/146/121 123/148/123 
s 1
f 52/63/52 120/145/120 133/169/133 
f 120/145/120 52/63/52 115/139/115 
s 2
f 88/105/88 75/170/75 74/140/74 
f 88/105/88 74/140/74 64/65/64 
s 4
f 131/159/131 105/123/105 106/124/106 
f 105/123/105 131/159/131 138/178/138 
s 8
f 106/124/106 104/122/104 102/120/102 
f 102/120/102 104/122/104 66/67/66 
s off
f 35/35/35 94/111/94 22/22/22 
f 94/111/94 35/35/35 93/110/93 
f 53/114/53 58/58/58 56/56/56 
f 58/58/58 53/114/53 96/113/96 
f 60/60/60 55/55/55 134/172/134 
f 55/55/55 60/60/60 54/54/54 
f 140/183/140 141/184/141 142/185/142 
f 143/186/143 140/183/140 142/185/142 
f 141/184/141 144/187/144 142/185/142 
f 45/188/45 143/186/143 142/185/142 
f 44/189/44 45/188/45 142/185/142 
f 145/190/145 44/189/44 142/185/142 
f 146/191/146 145/190/145 142/185/142 
f 144/187/144 146/191/146 142/185/142 
s 4
f 136/175/136 48/48/48 139/180/139 
f 139/180/139 48/48/48 107/126/107 
f 53/114/53 133/169/133 117/142/117 
f 133/169/133 53/114/53 52/63/52 
f 97/115/97 111/130/111 110/129/110 
f 111/130/111 97/115/97 99/117/99 
s 1
f 47/47/47 97/115/97 108/127/108 
f 108/127/108 97/115/97 110/129/110 
s 4
f 95/112/95 109/176/109 67/68/67 
f 68/69/68 67/68/67 109/176/109 
f 108/127/108 110/129/110 51/125/51 
f 15/131/15 51/125/51 110/129/110 
s 1
f 100/118/100 105/123/105 138/178/138 
f 105/123/105 100/118/100 49/49/49 
s off
f 52/52/52 127/155/127 125/154/125 
f 127/155/127 52/52/52 54/54/54 
s 8
f 81/88/81 76/81/76 136/175/136 
f 136/175/136 139/180/139 81/88/81 
s off
f 81/88/81 83/99/83 76/81/76 
f 82/97/82 73/192/73 39/39/39 
s 2
f 146/193/146 128/156/128 145/194/145 
f 128/156/128 146/193/146 130/158/130 
s 1
f 99/117/99 143/195/143 111/130/111 
f 143/195/143 99/117/99 140/196/140 
s 4
f 111/130/111 143/197/143 16/132/16 
f 45/198/45 16/132/16 143/197/143 
s 2
f 99/117/99 141/199/141 140/200/140 
f 141/199/141 99/117/99 98/116/98 
s 1
f 128/156/128 44/201/44 145/202/145 
f 44/201/44 128/156/128 13/13/13 
f 144/203/144 137/177/137 146/204/146 
f 130/158/130 146/204/146 137/177/137 
s 8
f 137/177/137 144/205/144 141/206/141 
f 137/177/137 141/206/141 98/116/98 
# 0 polygons - 288 triangles

